<svg id="Layer_1" data-name="Layer 1" xmlns="http://www.w3.org/2000/svg" viewBox="0 0 1020 901.4"><defs><style>.cls-1{fill:#3797c1;}.cls-2{fill:#164778;}.cls-3{fill:#44c7f4;}.cls-4{fill:#185180;}.cls-5{fill:#236692;}.cls-6{fill:#2c78a3;}.cls-7{fill:#3289b4;}.cls-8{fill:#42b4e0;}</style></defs><path class="cls-1" d="M493,507.26c-73.18,0-132.71-59.53-132.71-132.71S419.77,241.85,493,241.85s132.7,59.53,132.7,132.7S566.12,507.26,493,507.26Zm0-254.6a121.9,121.9,0,1,0,121.9,121.89A122,122,0,0,0,493,252.66Z" transform="translate(-2 -61.3)"/><path class="cls-2" d="M96.7,760.91a47.44,47.44,0,0,0-17.79-19A49.49,49.49,0,0,0,53,735.08a50.28,50.28,0,0,0-26.5,7A48.15,48.15,0,0,0,8.44,761.8,62.1,62.1,0,0,0,2,790.37a58.16,58.16,0,0,0,6.94,28.41,50.31,50.31,0,0,0,19.15,19.64,54.83,54.83,0,0,0,27.84,7.05,56.52,56.52,0,0,0,19.52-3.76,50.64,50.64,0,0,0,16.6-9.57,6.13,6.13,0,0,0,2-4.36A6,6,0,0,0,91.6,823a6.1,6.1,0,0,0-4.1-1.39,7.44,7.44,0,0,0-4.73,1.81,31.66,31.66,0,0,1-11.84,6.71,46.19,46.19,0,0,1-15,2.59,40.79,40.79,0,0,1-20-5A37.79,37.79,0,0,1,21.64,814,40.47,40.47,0,0,1,17,802.39l0-.08c-.45-2.26-.8-4.5-1-6.65h0c-1.06-9.28.28-13.81.29-13.84l.1-.16,0-.18c1.56-9.72,5.51-17.71,11.73-23.77a34.67,34.67,0,0,1,25-9.87c10.22,0,18.78,3.33,25.47,9.87,6.48,6.37,10.29,14.81,11.33,25.12H33a6,6,0,0,0-.15,12H96.46a6.72,6.72,0,0,0,4.73-1.71,6.1,6.1,0,0,0,1.84-4.67,58.69,58.69,0,0,0-6.33-27.51" transform="translate(-2 -61.3)"/><path class="cls-2" d="M469.29,736.35a6.44,6.44,0,0,0-3-.69,6.21,6.21,0,0,0-5.9,3.86l-38.53,84.89L382.79,739.7a6.08,6.08,0,0,0-8.43-3.17,6.21,6.21,0,0,0-3.84,5.9A5.56,5.56,0,0,0,371,745L415.41,840a7.77,7.77,0,0,0,2.54,3.42,6.33,6.33,0,0,0,3.77,1.24,7.37,7.37,0,0,0,7.07-4.61l43.84-95.28a5.82,5.82,0,0,0,.49-2.55,6.12,6.12,0,0,0-3.83-5.89" transform="translate(-2 -61.3)"/><path class="cls-2" d="M668.65,740h-24.8V709.1a6.62,6.62,0,0,0-7-7,6.6,6.6,0,0,0-4.84,1.93,6.85,6.85,0,0,0-1.92,5V740H615.84a6.19,6.19,0,1,0,0,12.37h14.28v54.75h0V838a6.62,6.62,0,0,0,7,7A6.56,6.56,0,0,0,642,843a6.82,6.82,0,0,0,1.93-5V800l0-.92V752.32h24.8a6.19,6.19,0,1,0,0-12.37" transform="translate(-2 -61.3)"/><path class="cls-2" d="M710.34,736.06a6.79,6.79,0,0,0-4.82,1.8,6.51,6.51,0,0,0-1.94,5v94.91a6.91,6.91,0,0,0,11.71,4.82,6.8,6.8,0,0,0,1.81-4.82V742.82a6.28,6.28,0,0,0-6.76-6.76" transform="translate(-2 -61.3)"/><path class="cls-2" d="M176.67,747.31v.78l-.08-.78ZM202,740.64a54.91,54.91,0,0,0-24.62-5.91v0H176v0a54.91,54.91,0,0,0-24.62,5.91,43.3,43.3,0,0,0-17.91,17.42c-4.28,7.58-6.45,16.74-6.45,27.24v52.43a6.77,6.77,0,1,0,13.53,0V785.3c0-12,3.41-21.29,10.13-27.58s15.39-9.38,26.05-9.48c10.66.1,19.43,3.29,26,9.48s10.13,15.57,10.13,27.58v52.43a6.58,6.58,0,0,0,6.77,6.76,6.57,6.57,0,0,0,6.77-6.76V785.3c0-10.5-2.18-19.66-6.46-27.24A43.24,43.24,0,0,0,202,740.64" transform="translate(-2 -61.3)"/><path class="cls-2" d="M931.83,747.31v.78l-.08-.78Zm43.26,10.75a43.26,43.26,0,0,0-17.92-17.42,54.83,54.83,0,0,0-24.61-5.91v0H931.1v0a54.87,54.87,0,0,0-24.62,5.91,43.38,43.38,0,0,0-17.92,17.42c-4.28,7.58-6.45,16.74-6.45,27.25v52.42a6.77,6.77,0,1,0,13.53,0V785.31c0-12,3.42-21.3,10.14-27.59s15.39-9.38,26.05-9.48c10.65.1,19.42,3.29,26,9.48S968,773.29,968,785.31v52.42a6.77,6.77,0,1,0,13.53,0V785.31c0-10.51-2.17-19.67-6.45-27.25" transform="translate(-2 -61.3)"/><path class="cls-2" d="M343.65,812.14a39.82,39.82,0,0,1-15,15.24,44,44,0,0,1-42.73,0,40.46,40.46,0,0,1-15.06-15.25,45.58,45.58,0,0,1,0-43.52,42.53,42.53,0,0,1,57.79-15.35,40.65,40.65,0,0,1,15,15.34,46.28,46.28,0,0,1,0,43.54m-8.2-70a58.71,58.71,0,0,0-56.45,0,52.68,52.68,0,0,0-19.93,19.93,58.71,58.71,0,0,0,0,56.45A52.68,52.68,0,0,0,279,838.43a58.71,58.71,0,0,0,56.45,0,52.68,52.68,0,0,0,19.93-19.93,58.64,58.64,0,0,0,0-56.45,52.68,52.68,0,0,0-19.93-19.93" transform="translate(-2 -61.3)"/><path class="cls-2" d="M574.78,812.14a39.82,39.82,0,0,1-15,15.24,44,44,0,0,1-42.73,0A40.39,40.39,0,0,1,502,812.13a45.58,45.58,0,0,1,0-43.52,42.52,42.52,0,0,1,57.78-15.35,40.61,40.61,0,0,1,15,15.34,46.36,46.36,0,0,1,0,43.54m-8.2-70a58.71,58.71,0,0,0-56.45,0,52.76,52.76,0,0,0-19.93,19.93,58.71,58.71,0,0,0,0,56.45,52.76,52.76,0,0,0,19.93,19.93,56.39,56.39,0,0,0,28.32,7.23,53.81,53.81,0,0,0,25.47-6,46.54,46.54,0,0,0,16.29-14.06v12.18a6.92,6.92,0,0,0,11.73,4.82,6.79,6.79,0,0,0,1.8-4.82V790.37a56.39,56.39,0,0,0-7.23-28.32,52.68,52.68,0,0,0-19.93-19.93" transform="translate(-2 -61.3)"/><path class="cls-2" d="M840.2,812.14a39.68,39.68,0,0,1-15,15.24,44,44,0,0,1-42.73,0,40.37,40.37,0,0,1-15-15.25,45.58,45.58,0,0,1,0-43.52,42.52,42.52,0,0,1,57.78-15.35,40.58,40.58,0,0,1,15,15.34,46.28,46.28,0,0,1,0,43.54m-8.19-70a58.71,58.71,0,0,0-56.45,0,52.71,52.71,0,0,0-19.94,19.93,58.71,58.71,0,0,0,0,56.45,52.71,52.71,0,0,0,19.94,19.93,58.71,58.71,0,0,0,56.45,0,52.76,52.76,0,0,0,19.93-19.93,58.71,58.71,0,0,0,0-56.45A52.76,52.76,0,0,0,832,742.12" transform="translate(-2 -61.3)"/><path class="cls-3" d="M298.36,618.35a5.36,5.36,0,0,1-3.41-1.22C221.7,557.24,179.69,468.82,179.69,374.55,179.69,201.83,320.22,61.3,493,61.3S806.2,201.83,806.2,374.55A312.51,312.51,0,0,1,692.1,616.19a5.41,5.41,0,1,1-6.88-8.34,301.69,301.69,0,0,0,110.17-233.3C795.39,207.78,659.72,72.11,493,72.11S190.5,207.78,190.5,374.55c0,91,40.56,176.38,111.29,234.22a5.4,5.4,0,0,1-3.43,9.58Z" transform="translate(-2 -61.3)"/><path class="cls-3" d="M493.08,314c-33.45-1.06-60.69,27.17-60.69,60.55a60.72,60.72,0,0,0,104.8,41.58,5.41,5.41,0,1,0-7.87-7.42,49.75,49.75,0,1,1,13-41.47H467.17a5.42,5.42,0,0,0,0,10.83h80.69a5.8,5.8,0,0,0,5.65-5.44C553.56,361.4,544.41,315.66,493.08,314Z" transform="translate(-2 -61.3)"/><path class="cls-4" d="M493,651.7c-152.82,0-277.15-124.33-277.15-277.15S340.13,97.41,493,97.41,770.09,221.74,770.09,374.55,645.76,651.7,493,651.7Zm0-543.48c-146.86,0-266.34,119.48-266.34,266.33S346.09,640.89,493,640.89,759.28,521.41,759.28,374.55,639.81,108.22,493,108.22Z" transform="translate(-2 -61.3)"/><path class="cls-5" d="M493,615.59c-132.91,0-241-108.13-241-241,0-99.39,62.5-190,155.53-225.36a5.4,5.4,0,1,1,3.84,10.1c-88.86,33.82-148.56,120.33-148.56,215.26,0,127,103.28,230.23,230.23,230.23a228.47,228.47,0,0,0,85.91-16.62,5.4,5.4,0,1,1,4,10A239.28,239.28,0,0,1,493,615.59Z" transform="translate(-2 -61.3)"/><path class="cls-5" d="M640.46,563.58a5.4,5.4,0,0,1-3.39-9.61,229.37,229.37,0,0,0,86.1-179.42c0-94.63-59.45-181-147.93-215a5.4,5.4,0,1,1,3.87-10.09C671.75,185,734,275.48,734,374.55a240.11,240.11,0,0,1-90.14,187.84A5.39,5.39,0,0,1,640.46,563.58Z" transform="translate(-2 -61.3)"/><path class="cls-6" d="M493,579.48C380,579.48,288,487.55,288,374.55S380,169.63,493,169.63A203.12,203.12,0,0,1,641,233.05a5.4,5.4,0,0,1-7.81,7.47A192.41,192.41,0,0,0,493,180.44c-107,0-194.12,87.08-194.12,194.11S385.91,568.67,493,568.67a192.72,192.72,0,0,0,137.83-57.56,5.41,5.41,0,0,1,7.68,7.61A203.48,203.48,0,0,1,493,579.48Z" transform="translate(-2 -61.3)"/><path class="cls-7" d="M493,543.37c-93.09,0-168.82-75.73-168.82-168.82A169.2,169.2,0,0,1,379.5,249.64a5.4,5.4,0,0,1,7.27,8,158.37,158.37,0,0,0-51.83,116.91c0,87.13,70.88,158,158,158s158-70.88,158-158a158.15,158.15,0,0,0-53.42-118.33,5.41,5.41,0,0,1,7.16-8.1,169,169,0,0,1,57.06,126.43C661.76,467.64,586,543.37,493,543.37Z" transform="translate(-2 -61.3)"/><path class="cls-8" d="M544.42,455.25a5.4,5.4,0,0,1-3-9.86,85.79,85.79,0,1,0-97.09-.17,5.4,5.4,0,0,1-6.14,8.89,96.6,96.6,0,1,1,109.33.19A5.36,5.36,0,0,1,544.42,455.25Z" transform="translate(-2 -61.3)"/><path class="cls-2" d="M298.36,618.35a5.36,5.36,0,0,1-3.41-1.22C221.7,557.24,179.69,468.82,179.69,374.55,179.69,201.83,320.22,61.3,493,61.3S806.2,201.83,806.2,374.55A312.51,312.51,0,0,1,692.1,616.19a5.41,5.41,0,1,1-6.88-8.34,301.69,301.69,0,0,0,110.17-233.3C795.39,207.78,659.72,72.11,493,72.11S190.5,207.78,190.5,374.55c0,91,40.56,176.38,111.29,234.22a5.4,5.4,0,0,1-3.43,9.58Z" transform="translate(-2 -61.3)"/><path class="cls-2" d="M1001.34,751.45a1.42,1.42,0,0,1-1.16-.48,2.29,2.29,0,0,1-.43-1.5V736.28a2.13,2.13,0,0,1,.46-1.53,1.39,1.39,0,0,1,.61-.34,3.36,3.36,0,0,1,.95-.13h5.9a19.69,19.69,0,0,1,2.06.11,4.17,4.17,0,0,1,4,4.55,5,5,0,0,1-3.21,5l2.84,4.83a2.24,2.24,0,0,1,.33,1.54,1.56,1.56,0,0,1-.85.92,1.6,1.6,0,0,1-.76.2,1.24,1.24,0,0,1-.5-.1,2.3,2.3,0,0,1-1.05-1.15l-3.26-6-4.37,0v5.25a2.22,2.22,0,0,1-.44,1.52A1.5,1.5,0,0,1,1001.34,751.45Zm1.6-9.65h3.58a7.72,7.72,0,0,0,2.59-.28,2.48,2.48,0,0,0,1.15-.94,2.43,2.43,0,0,0,.41-1.4,2.46,2.46,0,0,0-1.56-2.35,7.64,7.64,0,0,0-2.59-.29h-3.58Z" transform="translate(-2 -61.3)"/><path class="cls-2" d="M1006.36,758.5A15.64,15.64,0,1,1,1022,742.87,15.65,15.65,0,0,1,1006.36,758.5Zm0-28.31A12.68,12.68,0,1,0,1019,742.87,12.69,12.69,0,0,0,1006.36,730.19Z" transform="translate(-2 -61.3)"/><path class="cls-3" d="M167.64,920.91a2.76,2.76,0,0,1,.73,1.9,3.44,3.44,0,0,1-3.27,3.09,3.64,3.64,0,0,1-2.63-1.37,18.52,18.52,0,0,0-6-4.48,17.13,17.13,0,0,0-7.25-1.5,16.55,16.55,0,0,0-8.88,2.4,16,16,0,0,0-6,6.76,22.09,22.09,0,0,0-2.12,9.79,20.41,20.41,0,0,0,2.26,9.65,16.89,16.89,0,0,0,6.35,6.76,17.8,17.8,0,0,0,9.34,2.44q7.26,0,11.68-3.89a3.81,3.81,0,0,1,2.45-1,3.15,3.15,0,0,1,2,.72,3.21,3.21,0,0,1,1.27,2.45,2.58,2.58,0,0,1-.91,2c-4.34,4.06-9.85,6.08-16.49,6.08a24.65,24.65,0,0,1-12.7-3.31,23.82,23.82,0,0,1-8.83-9.07,25.72,25.72,0,0,1-3.22-12.82,27.09,27.09,0,0,1,3.08-13,23,23,0,0,1,8.52-9,23.37,23.37,0,0,1,12.24-3.26,22.59,22.59,0,0,1,18.4,8.7" transform="translate(-2 -61.3)"/><path class="cls-3" d="M214,953.91a17.73,17.73,0,0,0,6.58-6.76,20.68,20.68,0,0,0,0-19.3,18.46,18.46,0,0,0-25.3-6.8,17.7,17.7,0,0,0-6.61,6.8,20.53,20.53,0,0,0,0,19.3,17.46,17.46,0,0,0,6.61,6.76,18.36,18.36,0,0,0,9.38,2.44,18.13,18.13,0,0,0,9.34-2.44m3.49-38.39a24.09,24.09,0,0,1,9.07,9.1,25.62,25.62,0,0,1,3.3,12.88v21.31a3.31,3.31,0,0,1-1,2.44,3.44,3.44,0,0,1-2.53,1,3.53,3.53,0,0,1-2.54-.94,3.28,3.28,0,0,1-1-2.49v-5.45a22.42,22.42,0,0,1-8.07,6.85,23.43,23.43,0,0,1-10.78,2.49,23.88,23.88,0,0,1-21.26-12.37,25.92,25.92,0,0,1-3.22-12.83,25.53,25.53,0,0,1,3.31-12.88,24.09,24.09,0,0,1,9.07-9.1,26.5,26.5,0,0,1,25.65,0" transform="translate(-2 -61.3)"/><path class="cls-3" d="M271.84,913.12c1.48.66,2.22,1.6,2.22,2.8l-.09.82a2.77,2.77,0,0,1-1.14,1.73,4.31,4.31,0,0,1-2.12.45c-.55,0-1.49-.06-2.81-.18a19.41,19.41,0,0,0-13.28,3.53,11.75,11.75,0,0,0-4.31,9.43v27.1a3.46,3.46,0,0,1-.91,2.54,3.45,3.45,0,0,1-6-2.54V916.11a3.6,3.6,0,0,1,6-2.55,3.49,3.49,0,0,1,.91,2.55v4a18,18,0,0,1,6.7-5.88,19,19,0,0,1,8.8-2.1,14.87,14.87,0,0,1,6,1" transform="translate(-2 -61.3)"/><path class="cls-3" d="M291,922.72A18.45,18.45,0,0,0,285.49,934h33.17a17.76,17.76,0,0,0-5.07-11.25,15.33,15.33,0,0,0-11.16-4.25A16,16,0,0,0,291,922.72m23.3-7.39a21.49,21.49,0,0,1,8,8.66,27,27,0,0,1,2.85,12.6,3,3,0,0,1-.9,2.31,3.29,3.29,0,0,1-2.36.87H285.3a17.81,17.81,0,0,0,18.49,16.67,20.27,20.27,0,0,0,6.57-1.13,15.81,15.81,0,0,0,5.31-2.85,3.92,3.92,0,0,1,2.45-.91,3.4,3.4,0,0,1,2,.73,3.25,3.25,0,0,1,1.18,2.45,2.77,2.77,0,0,1-1,2.08,24.85,24.85,0,0,1-7.62,4.21,26.27,26.27,0,0,1-21.84-1.53,23,23,0,0,1-8.94-9,26.18,26.18,0,0,1-3.22-13,27.73,27.73,0,0,1,3-13.1,22.47,22.47,0,0,1,8.43-9,23.52,23.52,0,0,1,12.28-3.22,22.42,22.42,0,0,1,11.88,3.13" transform="translate(-2 -61.3)"/><path class="cls-3" d="M387.73,956.26a3.67,3.67,0,0,1,.91,2.55,3.22,3.22,0,0,1-1.08,2.44,3.94,3.94,0,0,1-2.73,1h-1.9a16.13,16.13,0,0,1-14.55-8.56,18.45,18.45,0,0,1-2.13-8.93v-24.2h-5.9a3.12,3.12,0,0,1-2.3-.86,2.89,2.89,0,0,1-.86-2.13,3,3,0,0,1,.86-2.23,3.11,3.11,0,0,1,2.3-.85h5.9V900.42c0-1,.31-5.61.95-6.28a3.31,3.31,0,0,1,2.5-1,3.45,3.45,0,0,1,2.53,1c.67.67,1,5.26,1,6.28v14.06h10.24a3.12,3.12,0,0,1,2.31.85,3,3,0,0,1,.87,2.23,2.9,2.9,0,0,1-.87,2.13,3.12,3.12,0,0,1-2.31.86H373.23v24.2a10.72,10.72,0,0,0,2.72,7.57,9.09,9.09,0,0,0,7,2.95h2.45a3.05,3.05,0,0,1,2.35,1" transform="translate(-2 -61.3)"/><path class="cls-3" d="M413.16,921a17.59,17.59,0,0,0-6.62,6.75,19.6,19.6,0,0,0-2.4,9.75,19.33,19.33,0,0,0,2.4,9.65,17.55,17.55,0,0,0,6.62,6.76,19.33,19.33,0,0,0,18.8,0,17.33,17.33,0,0,0,6.53-6.76,19.73,19.73,0,0,0,2.36-9.65,20,20,0,0,0-2.36-9.75A17.37,17.37,0,0,0,432,921a19.26,19.26,0,0,0-18.8,0m22.25-5.53a24,24,0,0,1,9,9.06,27.18,27.18,0,0,1,0,25.89,23.54,23.54,0,0,1-9,9,27.23,27.23,0,0,1-25.84,0,23.45,23.45,0,0,1-9-9,27.26,27.26,0,0,1,0-25.89,23.42,23.42,0,0,1,9-9.06,25.81,25.81,0,0,1,12.92-3.26,25.52,25.52,0,0,1,12.87,3.26" transform="translate(-2 -61.3)"/><path class="cls-3" d="M527.51,920.91a2.8,2.8,0,0,1,.72,1.9A3.42,3.42,0,0,1,525,925.9a3.64,3.64,0,0,1-2.63-1.37,18.63,18.63,0,0,0-6-4.48,17.19,17.19,0,0,0-7.25-1.5,16.61,16.61,0,0,0-8.89,2.4,16,16,0,0,0-6,6.76,22,22,0,0,0-2.14,9.79,20.42,20.42,0,0,0,2.27,9.65,16.93,16.93,0,0,0,6.34,6.76,17.8,17.8,0,0,0,9.34,2.44c4.83,0,8.74-1.3,11.7-3.89a3.77,3.77,0,0,1,2.44-1,3.15,3.15,0,0,1,2,.72,3.21,3.21,0,0,1,1.27,2.45,2.58,2.58,0,0,1-.91,2Q520,962.71,510,962.7a24.61,24.61,0,0,1-12.69-3.31,23.77,23.77,0,0,1-8.84-9.07,25.72,25.72,0,0,1-3.22-12.82,27.2,27.2,0,0,1,3.08-13,23,23,0,0,1,8.53-9,23.35,23.35,0,0,1,12.24-3.26,22.61,22.61,0,0,1,18.4,8.7" transform="translate(-2 -61.3)"/><path class="cls-3" d="M555.11,921a17.59,17.59,0,0,0-6.62,6.75,19.71,19.71,0,0,0-2.4,9.75,19.43,19.43,0,0,0,2.4,9.65,17.55,17.55,0,0,0,6.62,6.76,19.35,19.35,0,0,0,18.81,0,17.33,17.33,0,0,0,6.53-6.76,19.72,19.72,0,0,0,2.35-9.65,20,20,0,0,0-2.35-9.75,17.37,17.37,0,0,0-6.53-6.75,19.28,19.28,0,0,0-18.81,0m22.25-5.53a23.88,23.88,0,0,1,9,9.06,27.18,27.18,0,0,1,0,25.89,23.48,23.48,0,0,1-9,9,27.21,27.21,0,0,1-25.83,0,23.48,23.48,0,0,1-9-9,27.33,27.33,0,0,1,0-25.89,23.44,23.44,0,0,1,9-9.06,27.11,27.11,0,0,1,25.78,0" transform="translate(-2 -61.3)"/><path class="cls-3" d="M638.33,914.84a19.42,19.42,0,0,1,8,7.93,25.17,25.17,0,0,1,2.91,12.46V958.8a3.41,3.41,0,0,1-3.45,3.45,3.44,3.44,0,0,1-2.53-1,3.3,3.3,0,0,1-1-2.45V935.23q0-8.06-4.49-12.28T626,918.74a18.36,18.36,0,0,0-8,1.72,14,14,0,0,0-5.67,4.76,11.67,11.67,0,0,0-2.09,6.75V958.8a3.26,3.26,0,0,1-3.44,3.45,3.55,3.55,0,0,1-2.54-1,3.32,3.32,0,0,1-1-2.5V916.2a3.46,3.46,0,0,1,1-2.54,3.42,3.42,0,0,1,2.54-1,3.25,3.25,0,0,1,2.49,1,3.51,3.51,0,0,1,1,2.54v3.08a21.33,21.33,0,0,1,7.26-5.26,22.38,22.38,0,0,1,9.25-1.9,24.21,24.21,0,0,1,11.56,2.72" transform="translate(-2 -61.3)"/><path class="cls-3" d="M699.69,914.84a19.45,19.45,0,0,1,8,7.93,25.28,25.28,0,0,1,2.9,12.46V958.8a3.3,3.3,0,0,1-1,2.45,3.35,3.35,0,0,1-2.44,1,3.45,3.45,0,0,1-2.54-1,3.34,3.34,0,0,1-1-2.45V935.23q0-8.06-4.48-12.28t-11.75-4.21a18.31,18.31,0,0,0-8,1.72,14,14,0,0,0-5.67,4.76,11.67,11.67,0,0,0-2.09,6.75V958.8a3.26,3.26,0,0,1-3.44,3.45,3.55,3.55,0,0,1-2.54-1,3.29,3.29,0,0,1-1-2.5V916.2a3.41,3.41,0,0,1,3.54-3.53,3.26,3.26,0,0,1,2.49,1,3.51,3.51,0,0,1,1,2.54v3.08a21.23,21.23,0,0,1,7.26-5.26,22.37,22.37,0,0,1,9.24-1.9,24.18,24.18,0,0,1,11.56,2.72" transform="translate(-2 -61.3)"/><path class="cls-3" d="M735.72,922.72A18.51,18.51,0,0,0,730.19,934h33.19a17.83,17.83,0,0,0-5.09-11.25,15.27,15.27,0,0,0-11.14-4.25,16.06,16.06,0,0,0-11.43,4.25m23.3-7.39a21.36,21.36,0,0,1,8,8.66,27,27,0,0,1,2.86,12.6,3,3,0,0,1-.91,2.31,3.26,3.26,0,0,1-2.36.87H730a17.79,17.79,0,0,0,18.49,16.67,20.25,20.25,0,0,0,6.56-1.13,15.81,15.81,0,0,0,5.31-2.85,4,4,0,0,1,2.45-.91,3.4,3.4,0,0,1,2,.73,3.25,3.25,0,0,1,1.18,2.45,2.8,2.8,0,0,1-1,2.08,25,25,0,0,1-7.62,4.21,26.27,26.27,0,0,1-21.84-1.53,22.88,22.88,0,0,1-8.93-9,26.18,26.18,0,0,1-3.22-13,27.72,27.72,0,0,1,3-13.1,22.4,22.4,0,0,1,8.43-9,23.58,23.58,0,0,1,12.29-3.22A22.41,22.41,0,0,1,759,915.33" transform="translate(-2 -61.3)"/><path class="cls-3" d="M819.48,920.91a2.76,2.76,0,0,1,.73,1.9,3.1,3.1,0,0,1-1.55,2.54,3.05,3.05,0,0,1-1.72.55,3.6,3.6,0,0,1-2.62-1.37,18.67,18.67,0,0,0-6-4.48,17.18,17.18,0,0,0-7.26-1.5,16.65,16.65,0,0,0-8.88,2.4,16,16,0,0,0-6,6.76A22,22,0,0,0,784,937.5a20.41,20.41,0,0,0,2.26,9.65,16.89,16.89,0,0,0,6.35,6.76,17.79,17.79,0,0,0,9.33,2.44q7.26,0,11.69-3.89a3.82,3.82,0,0,1,2.46-1,3.12,3.12,0,0,1,2,.72,3.21,3.21,0,0,1,1.27,2.45,2.57,2.57,0,0,1-.9,2Q812,962.71,802,962.7a24.61,24.61,0,0,1-12.69-3.31,23.82,23.82,0,0,1-8.83-9.07,25.72,25.72,0,0,1-3.22-12.82,27.09,27.09,0,0,1,3.08-13,23,23,0,0,1,8.53-9,23.33,23.33,0,0,1,12.22-3.26,22.6,22.6,0,0,1,18.41,8.7" transform="translate(-2 -61.3)"/><path class="cls-3" d="M858.09,956.26a3.67,3.67,0,0,1,.91,2.55,3.2,3.2,0,0,1-1.09,2.44,3.88,3.88,0,0,1-2.72,1h-1.9a16.1,16.1,0,0,1-14.54-8.56,18.34,18.34,0,0,1-2.14-8.93v-24.2h-5.89a3.12,3.12,0,0,1-2.31-.86,2.94,2.94,0,0,1-.87-2.13,3.05,3.05,0,0,1,.87-2.23,3.12,3.12,0,0,1,2.31-.85h5.89V900.42c0-1,.31-5.61.95-6.28a3.32,3.32,0,0,1,2.5-1,3.44,3.44,0,0,1,2.53,1c.67.67,1,5.26,1,6.28v14.06h10.25a3.11,3.11,0,0,1,2.3.85,3,3,0,0,1,.86,2.23,2.93,2.93,0,0,1-.86,2.13,3.12,3.12,0,0,1-2.3.86H843.59v24.2a10.72,10.72,0,0,0,2.72,7.57,9.07,9.07,0,0,0,7,2.95h2.45a3,3,0,0,1,2.35,1" transform="translate(-2 -61.3)"/></svg>